<?xml version="1.0" encoding="UTF-8"?>
<svg id="a" data-name="Layer 1" xmlns="http://www.w3.org/2000/svg" viewBox="0 0 266 86">
  <g>
    <path d="M25.64,64.67c-12.1,0-21.34-8.76-22.06-20.62h-.05l-.05-1.5c0-7.99,3.75-12.68,8.93-19.18,3.29-4.12,7.01-8.78,10.9-15.57.48-.81,1.33-1.28,2.3-1.28s1.81.47,2.28,1.26c3.9,6.82,7.62,11.49,10.9,15.61,5.17,6.49,8.9,11.18,8.9,19.16,0,12.61-9.48,22.12-22.06,22.12Z"/>
    <path d="M25.62,8.03c.39,0,.79.17,1,.52,10.1,17.68,19.59,21.78,19.59,34,0,11.15-8.24,20.62-20.56,20.62S5.03,53.71,5.03,42.56h-.05c0-12.22,9.49-16.32,19.64-34,.21-.35.6-.52,1-.52h0ZM25.62,5.03c-1.47,0-2.84.76-3.57,1.99-3.86,6.73-7.55,11.34-10.8,15.42C6.08,28.93,1.99,34.05,1.99,42.56v3h.22c1.38,11.94,11,20.62,23.44,20.62,13.43,0,23.56-10.15,23.56-23.62,0-8.5-4.07-13.62-9.23-20.09-3.25-4.08-6.93-8.7-10.75-15.4v-.02s-.03-.02-.03-.02c-.73-1.23-2.1-1.99-3.57-1.99h0Z" fill="#afc436"/>
  </g>
  <g>
    <g>
      <path d="M79.15,64.67c-4.37,0-5.04,0-5.04-2.02v-22.82c0-1.13-.05-1.63-.51-1.68-.37-.09-1.09-.13-2.08-.13-1.39,0-2.8.08-2.98.13-.44.17-.46.72-.46,1.86v23c0,1.68-.48,1.68-5.04,1.68-4.25,0-4.7,0-4.7-1.51V5.8c0-1.61.61-1.85,4.7-1.85,4.5,0,5.12.24,5.12,1.94v20.15c0,1.52.04,2.2.91,2.47.37.04,1.66.12,2.84.12,1.05,0,1.52-.07,1.73-.13.45-.17.47-.91.47-2.21V5.54c0-1.53.71-1.6,2.96-1.6h1.99c4.39,0,4.95,0,4.95,1.69v57.02c0,1.97-.41,2.02-4.87,2.02Z" fill="#afc436"/>
      <path d="M77.07,4.24c.55,0,1.2,0,1.99,0,4.39,0,4.65,0,4.65,1.38v57.02c0,1.64,0,1.72-4.57,1.72s-4.74-.09-4.74-1.72v-22.82c0-1.03,0-1.89-.78-1.98-.41-.1-1.24-.14-2.11-.14-1.36,0-2.85.08-3.06.14-.69.26-.69,1.03-.69,2.15v23c0,1.38-.26,1.38-4.74,1.38-4.22,0-4.4,0-4.4-1.21V5.8c0-1.29.26-1.55,4.4-1.55,4.57,0,4.83.26,4.83,1.64v20.15c0,1.46,0,2.41,1.12,2.76.47.05,1.77.14,2.93.14.75,0,1.44-.04,1.81-.14.69-.26.69-1.21.69-2.5V5.54c0-1.19.34-1.3,2.66-1.3h0ZM77.07,3.64c-2.03,0-3.26,0-3.26,1.9v20.76c0,.88,0,1.78-.28,1.93-.18.04-.62.11-1.62.11-1.12,0-2.34-.08-2.81-.13-.59-.2-.65-.62-.65-2.17V5.89c0-2.14-1.3-2.24-5.43-2.24-3.71,0-5,.1-5,2.15v57.36c0,1.81.67,1.81,5,1.81s5.34,0,5.34-1.98v-23c0-1,.02-1.45.26-1.58.27-.04,1.54-.11,2.88-.11,1.35,0,1.83.08,1.97.12h.04s.04.01.04.01c.21.02.24.45.24,1.39v22.82c0,2.32,1.03,2.32,5.34,2.32s5.17,0,5.17-2.32V5.63c0-1.98-.8-1.98-5.25-1.98-.43,0-.82,0-1.17,0h-.82Z" fill="#afc436"/>
    </g>
    <g>
      <path d="M95.79,81.98c-1.59,0-3.34-.06-3.96-.83-.21-.25-.28-.57-.21-.91l.3-1.43c1.13-5.34,1.95-9.21,3.06-14.68.25-1.09.25-1.49.25-2.78s-.08-1.72-.23-2.47l-.03-.15c-3.11-13.14-5.21-22.03-8.1-34.62-.04-.22,0-.43.15-.6.49-.6,2.07-.72,4.63-.72s4.66.11,4.86,1.46c.71,4.5,1.34,8.12,1.95,11.61.58,3.36,1.13,6.53,1.76,10.44,0,.25.08.61.22.61.13,0,.19-.07.27-.5.01-.08.03-.15.05-.22l.96-5.28c1.03-5.67,1.85-10.15,2.92-16.83.22-1.19,2.22-1.29,5.04-1.29,1.64,0,3.72.16,4.29.9.15.2.2.44.13.68-4.17,17.12-7.8,31.74-11.64,47.21l-2.24,9.02c-.31,1.25-2.03,1.35-4.43,1.35Z" fill="#afc436"/>
      <path d="M109.67,23.11c1.98,0,4.39.26,4.14,1.21-5,20.5-9.31,37.81-13.88,56.24-.26,1.03-1.9,1.12-4.14,1.12-1.81,0-4.14-.09-3.88-1.38,1.29-6.12,2.15-10.16,3.36-16.11.26-1.12.26-1.55.26-2.84,0-1.46-.09-1.81-.26-2.67-3.02-12.75-5.17-21.88-8.1-34.63-.17-.86,2.15-.95,4.48-.95s4.39.09,4.57,1.21c1.38,8.7,2.41,13.95,3.71,22.05,0,.26.09.86.52.86.52,0,.52-.6.6-.95,1.55-8.61,2.5-13.52,3.88-22.13.17-.95,2.15-1.03,4.74-1.03h0ZM109.67,22.51c-2.96,0-5.07.11-5.33,1.53-1.07,6.7-1.89,11.18-2.92,16.85-.29,1.59-.6,3.29-.93,5.15-.61-3.8-1.15-6.92-1.72-10.21-.61-3.49-1.23-7.1-1.95-11.6-.26-1.71-2.98-1.71-5.16-1.71-2.71,0-4.29.13-4.86.83-.2.24-.27.54-.21.84,2.91,12.66,5,21.53,8.1,34.65l.02.12c.15.75.22,1.09.22,2.41s0,1.66-.24,2.71c-1.11,5.44-1.92,9.27-3.04,14.58l-.33,1.54c-.09.44,0,.84.27,1.17.64.78,2.08.94,4.19.94s4.33,0,4.72-1.57l2.22-8.97c3.84-15.49,7.47-30.13,11.65-47.28.09-.32.02-.65-.19-.93-.52-.68-2.04-1.02-4.53-1.02h0Z" fill="#afc436"/>
    </g>
    <g>
      <path d="M120.78,81.98c-3.9,0-4.61,0-4.61-1.07V23.89c0-1.08.93-1.08,2.79-1.08h1.39c.78,0,1.43-.02,1.96-.03.37-.01.69-.02.96-.02,1.39,0,1.75.28,1.95,1.51.05.3.07.6.09.87.01.2.03.46.07.61.08-.08.18-.21.28-.35.7-.93,2.01-2.67,4.86-2.67,5.64,0,11.33,3.93,11.33,12.7v16.71c0,7.55-4.55,12.62-11.33,12.62-.93,0-3.42-.72-4.68-1.89-.17-.15-.25-.15-.25-.15,0,0-.19.14-.19,1.13v17.14c0,.29,0,.51-.18.7-.26.27-.73.29-2.44.29h-1.99ZM128.97,32.29c-2.74,0-3.15,3.37-3.15,5.38v11.89c0,3.78.97,5.47,3.15,5.47,2.61,0,3.15-2.19,3.15-5.47v-11.89c0-3.57-1.06-5.38-3.15-5.38Z" fill="#afc436"/>
      <path d="M130.52,23.03c6.03,0,11.03,4.31,11.03,12.4v16.71c0,7.84-4.91,12.32-11.03,12.32-.86,0-3.27-.69-4.48-1.81-.18-.15-.33-.23-.46-.23-.32,0-.49.46-.49,1.43v17.14c0,.63.06.69-2.32.69-.53,0-1.19,0-1.99,0-3.71,0-4.31,0-4.31-.77V23.89c0-.72.48-.78,2.49-.78.4,0,.86,0,1.39,0,1.34,0,2.26-.05,2.92-.05,1.24,0,1.48.18,1.65,1.26.15.9.04,1.79.4,1.79.06,0,.12-.02.2-.07.6-.6,1.72-3.01,5-3.01h0ZM128.97,55.33c2.93,0,3.45-2.58,3.45-5.77v-11.89c0-2.67-.6-5.68-3.45-5.68s-3.45,3.01-3.45,5.68v11.89c0,3.27.69,5.77,3.45,5.77h0ZM130.52,22.43c-2.77,0-4.15,1.55-4.92,2.56-.02-.24-.04-.5-.09-.76-.21-1.36-.72-1.76-2.24-1.76-.27,0-.59,0-.97.02-.53.01-1.17.03-1.95.03h-.79s-.6,0-.6,0c-1.86,0-3.09,0-3.09,1.38v57.02c0,1.37.94,1.37,4.91,1.37h1.2s.79,0,.79,0c1.72,0,2.28-.02,2.65-.38.27-.27.27-.6.27-.87v-17.18c0-.32.02-.53.04-.67,1.37,1.21,3.87,1.88,4.79,1.88,6.96,0,11.63-5.19,11.63-12.92v-16.71c0-7.78-4.67-13-11.63-13h0ZM128.97,54.73c-1.41,0-2.85-.61-2.85-5.17v-11.89c0-4.42,1.78-5.08,2.85-5.08,1.89,0,2.85,1.71,2.85,5.08v11.89c0,3.72-.8,5.17-2.85,5.17h0Z" fill="#afc436"/>
    </g>
    <g>
      <path d="M157.12,64.76c-7.65,0-12.79-5.1-12.79-12.7v-16.71c0-7.43,5.26-12.62,12.79-12.62s12.8,5.07,12.8,12.62v9.07c0,.41,0,.8-.28,1.08-.29.29-.79.4-1.75.4h-13.1c-.57,0-.91.07-.91,1.08,0,.83.02,1.61.04,2.38.02.76.04,1.5.04,2.27.08,2.42.99,3.4,3.15,3.4,2.6,0,3.15-1.99,3.15-3.66,0-.75.81-.82,4.61-.82s5.04,0,5.04,1.51c0,7.95-4.78,12.7-12.8,12.7ZM157.04,32.29c-2.84,0-3.06,2.74-3.06,3.58v2.15c0,.66,1,.99,2.98.99,1.17,0,3.15-.11,3.15-.82v-2.33c0-1.08-.3-3.58-3.06-3.58Z" fill="#afc436"/>
      <path d="M157.12,23.03c7.33,0,12.5,4.82,12.5,12.32v8.96c0,.86.09,1.29-1.72,1.29h-13.1c-.69,0-1.21.17-1.21,1.38,0,1.64.09,3.1.09,4.65.09,2.59,1.12,3.7,3.45,3.7,2.5,0,3.45-1.72,3.45-3.96,0-.43.78-.52,4.31-.52,3.88,0,4.74,0,4.74,1.21,0,8.27-5.08,12.4-12.5,12.4s-12.5-4.74-12.5-12.4v-16.71c0-7.49,5.34-12.32,12.5-12.32h0ZM156.95,39.31c3.19,0,3.45-.69,3.45-1.12v-2.33c0-1.98-.86-3.88-3.36-3.88s-3.36,1.98-3.36,3.88v2.15c0,.6.43,1.29,3.28,1.29h0ZM157.12,22.43c-7.71,0-13.1,5.31-13.1,12.92v16.71c0,7.78,5.26,13,13.1,13s13.1-4.86,13.1-13c0-1.81-1.35-1.81-5.34-1.81-3.67,0-4.91,0-4.91,1.12,0,2.23-.96,3.36-2.85,3.36-2,0-2.77-.85-2.85-3.12,0-.75-.02-1.5-.04-2.26-.02-.76-.04-1.55-.04-2.37s.15-.78.61-.78h13.1c1.06,0,1.61-.14,1.96-.49.37-.37.37-.84.37-1.29v-.11s0-8.96,0-8.96c0-7.73-5.26-12.92-13.1-12.92h0ZM156.95,38.71c-1.68,0-2.68-.26-2.68-.69v-2.15c0-.98.27-3.28,2.76-3.28s2.76,2.05,2.76,3.28v2.33c0,.13-.52.52-2.85.52h0Z" fill="#afc436"/>
    </g>
    <g>
      <path d="M177.26,64.76c-3.65,0-4.61-.05-4.61-1.16V23.8c0-.92.9-.92,1.93-.92h.83c.41.01.87.02,1.41.02.66,0,1.23-.01,1.72-.02.37,0,.7-.01.98-.01,1.47,0,2.16.15,2.16,1.54,0,.7.04,1.08.08,1.28.02-.03.05-.05.07-.08.76-.83,2.54-2.79,6.53-2.79h.31c1.27,0,1.37.54,1.37,3.57,0,4.01-.11,4.87-.4,5.26-.61.81-1.83.81-2.48.81-2.72,0-4.7,2.37-4.7,5.64v25.41c0,1.25-.69,1.25-5.21,1.25Z" fill="#afc436"/>
      <path d="M188.68,23.11c.93,0,1.07.14,1.07,3.27,0,3.62-.09,4.74-.34,5.08-.52.69-1.64.69-2.24.69-2.93,0-5,2.58-5,5.94v25.41c0,.95-.52.95-4.91.95-3.71,0-4.31-.09-4.31-.86V23.8c0-.54.37-.62,1.64-.62.56,0,1.29.02,2.24.02,1.16,0,2.04-.03,2.71-.03,1.49,0,1.86.16,1.86,1.24,0,.98.08,1.73.31,1.73.01,0,.03,0,.04,0,.43-.26,1.98-3.01,6.63-3.01.11,0,.21,0,.3,0h0ZM188.68,22.51h-.14s-.16,0-.16,0c-3.54,0-5.44,1.54-6.37,2.48,0-.16-.01-.35-.01-.59,0-1.7-1.07-1.84-2.46-1.84-.29,0-.61,0-.99.01-.49,0-1.06.02-1.72.02-.54,0-1,0-1.41,0-.31,0-.59,0-.84,0-1.05,0-2.24,0-2.24,1.22v39.79c0,1.46,1.34,1.46,4.91,1.46,4.67,0,5.51,0,5.51-1.55v-25.41c0-3.1,1.85-5.34,4.4-5.34.66,0,2.02,0,2.72-.93.35-.47.46-1.28.46-5.44,0-2.74,0-3.87-1.67-3.87h0Z" fill="#afc436"/>
    </g>
    <g>
      <path d="M197.53,65.27c-4.28,0-5.3,0-5.3-2.11V5.63c0-2.28,1.44-2.28,5.3-2.28,4.4,0,5.73,0,5.73,2.36v57.28c0,2.28-1.21,2.28-5.73,2.28Z"/>
      <path d="M197.53,4.25c4.57,0,4.83.09,4.83,1.46v57.28c0,1.29-.09,1.38-4.83,1.38-4.22,0-4.4,0-4.4-1.21V5.63c0-1.29.35-1.38,4.4-1.38h0ZM197.53,2.45c-3.86,0-6.2,0-6.2,3.18v57.53c0,3.01,1.94,3.01,6.2,3.01,4.55,0,6.63,0,6.63-3.18V5.72c0-3.26-2.35-3.26-6.63-3.26h0Z" fill="#afc436"/>
    </g>
    <g>
      <path d="M227.67,65.36c-4.29,0-5.9,0-5.9-1.59v-26.36c0-3.3-.46-4.53-1.68-4.53-2.53,0-3.06,2.32-3.06,4.27v26.36c0,1.85-1,1.85-5.81,1.85-3.79,0-5.21,0-5.21-1.76V23.8c0-1.59,1.52-1.59,3.28-1.59h1.5c.55,0,1.04,0,1.46,0h.92c1.51,0,3.08,0,3.08,2.2v.23c1.55-1.41,4.02-2.42,5.65-2.42,4.1,0,10.98,1.74,10.98,13.39v27.99c0,1.76-1.74,1.76-5.21,1.76Z"/>
      <path d="M213.16,23.1c1.84,0,2.18.15,2.18,1.31,0,1.59,0,2.39.21,2.39.09,0,.21-.14.39-.41,1.03-1.81,4.22-3.27,5.95-3.27,5.69,0,10.08,3.36,10.08,12.49v27.99c0,.78-.77.86-4.31.86-4.14,0-5-.09-5-.69v-26.36c0-2.58-.17-5.43-2.59-5.43-2.84,0-3.96,2.33-3.96,5.17v26.36c0,.95-.35.95-4.91.95-3.88,0-4.31-.09-4.31-.86V23.8c0-.63.46-.69,2.38-.69.42,0,.92,0,1.5,0,.99,0,1.77-.02,2.38-.02h0ZM213.16,21.3c-.28,0-.58,0-.93,0-.42,0-.91,0-1.45,0h-.86s-.64,0-.64,0c-1.77,0-4.18,0-4.18,2.49v39.79c0,1.31.78,2.21,2.15,2.49.75.15,1.83.17,3.96.17,2.45,0,3.67,0,4.49-.15,1.43-.26,2.22-1.18,2.22-2.6v-26.36c0-3.37,1.63-3.37,2.16-3.37s.79,1.19.79,3.63v26.36c0,.61.24,2.06,2.51,2.36.85.11,2.16.13,4.29.13,3.55,0,6.11,0,6.11-2.66v-27.99c0-4.3-1.16-14.29-11.88-14.29-1.42,0-3.36.66-4.97,1.7-.64-1.71-2.54-1.71-3.76-1.71h0Z" fill="#afc436"/>
    </g>
    <g>
      <path d="M256.82,65.36c-2.64,0-4.55,0-5.23-1.78-1.1-3.17-1.75-4.94-2.4-6.7-.62-1.71-1.25-3.4-2.27-6.33-.16-.49-.29-.77-.39-.92-.36.31-.53.54-.53,1.14v12.15c0,2.36-2.91,2.36-5.73,2.36-2.23,0-5.29,0-5.29-2.19V5.46c0-1.87,2.83-2.11,5.29-2.11,2.14,0,5.73,0,5.73,2.19v28.72c1.46-3.95,2.41-6.52,3.85-10.59.58-1.46,2.58-1.46,4.9-1.46,4.37,0,5.79.23,6.32,1.02.22.32.26.72.11,1.08l-.98,2.2c-1.91,4.28-3.17,7.11-5.33,11.79l-.14.3c-.23.52-.55,1.23-.55,1.56s.15,1.32.44,1.96c2.77,6.94,4.33,11.12,6.5,16.91l1.53,4.07c.15.44.09.85-.16,1.19-.48.67-1.57,1.06-5.69,1.06Z"/>
      <path d="M240.28,4.25c1.64,0,4.83,0,4.83,1.29v30.06c0,.82.16,1.42.4,1.42.06,0,.13-.04.2-.13.35-.43.6-1.12.95-1.81,1.64-4.39,2.59-6.98,4.05-11.11.35-.86,2.07-.86,4.05-.86s5.95,0,5.6.86c-2.5,5.6-3.79,8.53-6.29,13.95-.34.78-.77,1.64-.77,2.24,0,.43.17,1.55.52,2.33,3.36,8.44,5,12.92,8.01,20.93.17.52-.43,1.03-5,1.03-2.76,0-3.96-.09-4.39-1.21-2.15-6.2-2.59-7.06-4.65-13.01-.38-1.19-.8-1.65-1.2-1.65-.15,0-.3.07-.44.18-.52.43-1.03.86-1.03,1.98v12.15c0,1.46-2.24,1.46-4.83,1.46-2.24,0-4.39-.09-4.39-1.29V5.46c0-1.12,3.02-1.21,4.39-1.21h0ZM240.28,2.45c-1.85,0-6.19,0-6.19,3.01v57.62c0,3.09,3.88,3.09,6.19,3.09,2.8,0,6.63,0,6.63-3.26v-9.71c.57,1.62,1.01,2.82,1.44,3.99.63,1.73,1.29,3.52,2.38,6.66v.03s.02.03.02.03c.91,2.36,3.3,2.36,6.07,2.36,4.08,0,5.64-.35,6.42-1.43.41-.57.52-1.29.29-1.97v-.03s-.02-.03-.02-.03l-1.52-4.03c-2.18-5.8-3.75-9.99-6.51-16.93v-.03s-.03-.03-.03-.03c-.22-.49-.36-1.35-.36-1.59.02-.19.31-.81.47-1.18l.15-.33c2.15-4.67,3.41-7.5,5.33-11.79l.96-2.16v-.03s.03-.03.03-.03c.26-.64.18-1.35-.2-1.92-.81-1.2-2.56-1.41-7.07-1.41-2.53,0-4.92,0-5.72,1.99v.03s-.03.03-.03.03c-.79,2.24-1.44,4.03-2.1,5.85V5.54c0-3.09-4.31-3.09-6.63-3.09h0Z" fill="#afc436"/>
    </g>
  </g>
  <text/>
</svg>